<svg width="100%" height="100%" id="svg" preserveAspectRatio="none" viewBox="0 0 1440 400" xmlns="http://www.w3.org/2000/svg" class="transition duration-300 ease-in-out delay-150"><defs><linearGradient id="gradient" x1="4%" y1="31%" x2="96%" y2="69%"><stop offset="5%" stop-color="#00d084"></stop><stop offset="95%" stop-color="#8ed1fc"></stop></linearGradient></defs><path d="M 0,400 C 0,400 0,80 0,80 C 19.954723261311706,80.00780543783344 39.90944652262341,80.0156108756669 65,83 C 90.09055347737659,85.9843891243331 120.31693717081802,91.94536193516585 148,87 C 175.68306282918198,82.05463806483415 200.82280479410437,66.20294138366971 225,70 C 249.17719520589563,73.79705861633029 272.3918436527644,97.2428725301553 295,102 C 317.6081563472356,106.7571274698447 339.60982059483774,92.82556849570916 364,82 C 388.39017940516226,71.17443150429084 415.16887396788456,63.45485348700805 441,67 C 466.83112603211544,70.54514651299195 491.71468353362377,85.3550175562586 512,86 C 532.2853164663762,86.6449824437414 547.9723918976204,73.12507628795753 569,70 C 590.0276081023796,66.87492371204247 616.395748875895,74.14467729191132 639,75 C 661.604251124105,75.85532270808868 680.4446125987998,70.29621454439716 709,74 C 737.5553874012002,77.70378545560284 775.8258007289056,90.67046453050004 804,95 C 832.1741992710944,99.32953546949996 850.2521844855779,95.02192733360266 871,96 C 891.7478155144221,96.97807266639734 915.1654613287833,103.2418261350893 940,102 C 964.8345386712167,100.7581738649107 991.0859701992888,92.01076812604012 1012,82 C 1032.9140298007112,71.98923187395988 1048.490657874062,60.71510136075017 1072,64 C 1095.509342125938,67.28489863924983 1126.951398304464,85.1288264309592 1155,81 C 1183.048601695536,76.8711735690408 1207.7037489080817,50.769592915413 1231,57 C 1254.2962510919183,63.230407084587 1276.2336060632088,101.7928019073888 1299,103 C 1321.7663939367912,104.2071980926112 1345.361826839083,68.05919945503177 1369,58 C 1392.638173160917,47.94080054496823 1416.3190865804586,63.97040027248411 1440,80 C 1440,80 1440,400 1440,400 Z" stroke="none" stroke-width="0" fill="url(#gradient)" fill-opacity="0.265" class="transition-all duration-300 ease-in-out delay-150 path-0"></path><defs><linearGradient id="gradient" x1="4%" y1="31%" x2="96%" y2="69%"><stop offset="5%" stop-color="#00d084"></stop><stop offset="95%" stop-color="#8ed1fc"></stop></linearGradient></defs><path d="M 0,400 C 0,400 0,160 0,160 C 24.81233742851824,167.1539103472523 49.62467485703648,174.30782069450456 75,180 C 100.37532514296352,185.69217930549544 126.31363800037226,189.92262756923398 149,181 C 171.68636199962774,172.07737243076602 191.12077314147453,150.00166902855958 211,146 C 230.87922685852547,141.99833097144042 251.2032694337296,156.07069631652772 279,161 C 306.7967305662704,165.92930368347228 342.0661491236072,161.71554570532962 365,156 C 387.9338508763928,150.28445429467038 398.5321340718415,143.06712086215379 420,142 C 441.4678659281585,140.93287913784621 473.8053145890269,146.01597084605527 503,145 C 532.1946854109731,143.98402915394473 558.2466075720511,136.8689957536252 582,137 C 605.7533924279489,137.1310042463748 627.2082551227688,144.50804613944402 651,152 C 674.7917448772312,159.49195386055598 700.9203719368738,167.0988196885987 726,162 C 751.0796280631262,156.9011803114013 775.1102571297359,139.09667510616123 795,143 C 814.8897428702641,146.90332489383877 830.6385995441825,172.51447988675653 856,177 C 881.3614004558175,181.48552011324347 916.3353446935341,164.84540534681264 946,153 C 975.6646553064659,141.15459465318736 1000.0200216816809,134.10389872599285 1017,139 C 1033.9799783183191,143.89610127400715 1043.584568579742,160.7389997492158 1066,172 C 1088.415431420258,183.2610002507842 1123.641703999351,188.94010227714384 1151,185 C 1178.358296000649,181.05989772285616 1197.8486154228542,167.50059114220886 1224,158 C 1250.1513845771458,148.49940885779114 1282.9638343092315,143.0575331540207 1305,139 C 1327.0361656907685,134.9424668459793 1338.2960473402197,132.26927624170838 1359,136 C 1379.7039526597803,139.73072375829162 1409.85197632989,149.8653618791458 1440,160 C 1440,160 1440,400 1440,400 Z" stroke="none" stroke-width="0" fill="url(#gradient)" fill-opacity="0.4" class="transition-all duration-300 ease-in-out delay-150 path-1"></path><defs><linearGradient id="gradient" x1="4%" y1="31%" x2="96%" y2="69%"><stop offset="5%" stop-color="#00d084"></stop><stop offset="95%" stop-color="#8ed1fc"></stop></linearGradient></defs><path d="M 0,400 C 0,400 0,240 0,240 C 20.65275341946129,235.23035273488796 41.30550683892258,230.46070546977595 67,235 C 92.69449316107742,239.53929453022405 123.43072606377098,253.38753085578426 150,247 C 176.56927393622902,240.61246914421574 198.97158890599349,213.989171107087 221,215 C 243.02841109400651,216.010828892913 264.6829183122551,244.6557847158677 284,254 C 303.3170816877449,263.3442152841323 320.29673784498635,253.38769002944213 347,255 C 373.70326215501365,256.6123099705579 410.13013030779933,269.7934551663636 435,268 C 459.86986969220067,266.2065448336364 473.182740923816,249.43848930510345 496,238 C 518.817259076184,226.56151069489655 551.138905996937,220.45258761322262 576,222 C 600.861094003063,223.54741238677738 618.2616350884366,232.7511602420061 643,232 C 667.7383649115634,231.2488397579939 699.8145536493166,220.5427714187528 727,222 C 754.1854463506834,223.4572285812472 776.4801503142968,237.0777540829826 800,246 C 823.5198496857032,254.9222459170174 848.2648450934964,259.1462122493167 870,247 C 891.7351549065036,234.85378775068327 910.4604693117177,206.3373969197505 930,212 C 949.5395306882823,217.6626030802495 969.8932776596329,257.5042000716812 995,260 C 1020.1067223403671,262.4957999283188 1049.9664200497505,227.64580279352435 1079,224 C 1108.0335799502495,220.35419720647565 1136.2410421413654,247.91258875422136 1161,248 C 1185.7589578586346,248.08741124577864 1207.0694113847885,220.70384218959012 1232,215 C 1256.9305886152115,209.29615781040988 1285.48131231948,225.27204248741805 1305,237 C 1324.51868768052,248.72795751258195 1335.0053393372914,256.2079878607377 1356,256 C 1376.9946606627086,255.7920121392623 1408.4973303313543,247.89600606963114 1440,240 C 1440,240 1440,400 1440,400 Z" stroke="none" stroke-width="0" fill="url(#gradient)" fill-opacity="0.53" class="transition-all duration-300 ease-in-out delay-150 path-2"></path><defs><linearGradient id="gradient" x1="4%" y1="31%" x2="96%" y2="69%"><stop offset="5%" stop-color="#00d084"></stop><stop offset="95%" stop-color="#8ed1fc"></stop></linearGradient></defs><path d="M 0,400 C 0,400 0,320 0,320 C 30.330145949972007,337.3124916722197 60.66029189994401,354.6249833444394 84,343 C 107.33970810005599,331.3750166555606 123.68897835019592,290.8125582944623 142,292 C 160.31102164980408,293.1874417055377 180.58379469927226,336.1247834777114 206,344 C 231.41620530072774,351.8752165222886 261.97584285271495,324.688307794692 286,317 C 310.02415714728505,309.311692205308 327.5128338898678,321.12198534352063 352,321 C 376.4871661101322,320.87801465647937 407.9728215878139,308.8237508312257 434,309 C 460.0271784121861,309.1762491687743 480.5958797588769,321.5830113315764 507,333 C 533.4041202411231,344.4169886684236 565.6436593766789,354.84420384246863 585,349 C 604.3563406233211,343.15579615753137 610.8294827344074,321.04017329854906 636,312 C 661.1705172655926,302.95982670145094 705.0384096856909,306.995102963335 733,313 C 760.9615903143091,319.004897036665 773.0168785228288,326.97941484811093 796,322 C 818.9831214771712,317.02058515188907 852.8940762229934,299.0872376442215 876,304 C 899.1059237770066,308.9127623557785 911.4068165851979,336.6716345750032 934,339 C 956.5931834148021,341.3283654249968 989.4786574362151,318.22622405576567 1016,319 C 1042.5213425637849,319.77377594423433 1062.6785536699408,344.423469201934 1088,346 C 1113.3214463300592,347.576530798066 1143.8071278840214,326.07989913649834 1163,314 C 1182.1928721159786,301.92010086350166 1190.0929347939737,299.2569342520726 1214,301 C 1237.9070652060263,302.7430657479274 1277.821132940084,308.8923638552112 1306,309 C 1334.178867059916,309.1076361447888 1350.6225334456901,303.1736103270825 1371,304 C 1391.3774665543099,304.8263896729175 1415.6887332771548,312.41319483645873 1440,320 C 1440,320 1440,400 1440,400 Z" stroke="none" stroke-width="0" fill="url(#gradient)" fill-opacity="1" class="transition-all duration-300 ease-in-out delay-150 path-3"></path></svg>