<svg width="100%" height="100%" id="svg" preserveAspectRatio='none' viewBox="0 0 1440 700" xmlns="http://www.w3.org/2000/svg" class="transition duration-300 ease-in-out delay-150"><defs><linearGradient id="gradient" x1="2%" y1="36%" x2="98%" y2="64%"><stop offset="5%" stop-color="#7bdcb5"></stop><stop offset="95%" stop-color="#97d2fe"></stop></linearGradient></defs><path d="M 0,700 C 0,700 0,140 0,140 C 110.51674641148324,163.5980861244019 221.03349282296648,187.19617224880383 319,185 C 416.9665071770335,182.80382775119617 502.38277511961724,154.81339712918657 592,150 C 681.6172248803828,145.18660287081343 775.4354066985645,163.55023923444978 861,166 C 946.5645933014355,168.44976076555022 1023.8755980861245,154.98564593301435 1119,148 C 1214.1244019138755,141.01435406698565 1327.0622009569379,140.50717703349284 1440,140 C 1440,140 1440,700 1440,700 Z" stroke="none" stroke-width="0" fill="url(#gradient)" fill-opacity="0.265" class="transition-all duration-300 ease-in-out delay-150 path-0" transform="rotate(-180 720 350)"></path><defs><linearGradient id="gradient" x1="2%" y1="36%" x2="98%" y2="64%"><stop offset="5%" stop-color="#7bdcb5"></stop><stop offset="95%" stop-color="#97d2fe"></stop></linearGradient></defs><path d="M 0,700 C 0,700 0,280 0,280 C 67.42583732057417,273.42583732057415 134.85167464114835,266.85167464114835 245,263 C 355.14832535885165,259.14832535885165 508.01913875598086,258.0191387559808 625,275 C 741.9808612440191,291.9808612440192 823.0717703349281,327.0717703349282 915,323 C 1006.9282296650719,318.9282296650718 1109.6937799043062,275.6937799043062 1199,262 C 1288.3062200956938,248.30622009569376 1364.153110047847,264.1531100478469 1440,280 C 1440,280 1440,700 1440,700 Z" stroke="none" stroke-width="0" fill="url(#gradient)" fill-opacity="0.4" class="transition-all duration-300 ease-in-out delay-150 path-1" transform="rotate(-180 720 350)"></path><defs><linearGradient id="gradient" x1="2%" y1="36%" x2="98%" y2="64%"><stop offset="5%" stop-color="#7bdcb5"></stop><stop offset="95%" stop-color="#97d2fe"></stop></linearGradient></defs><path d="M 0,700 C 0,700 0,420 0,420 C 122.23923444976077,445.57894736842104 244.47846889952154,471.1578947368421 334,462 C 423.52153110047846,452.8421052631579 480.32535885167465,408.94736842105266 578,394 C 675.6746411483253,379.05263157894734 814.22009569378,393.05263157894734 906,415 C 997.77990430622,436.94736842105266 1042.7942583732058,466.8421052631579 1124,469 C 1205.2057416267942,471.1578947368421 1322.6028708133972,445.57894736842104 1440,420 C 1440,420 1440,700 1440,700 Z" stroke="none" stroke-width="0" fill="url(#gradient)" fill-opacity="0.53" class="transition-all duration-300 ease-in-out delay-150 path-2" transform="rotate(-180 720 350)"></path><defs><linearGradient id="gradient" x1="2%" y1="36%" x2="98%" y2="64%"><stop offset="5%" stop-color="#7bdcb5"></stop><stop offset="95%" stop-color="#97d2fe"></stop></linearGradient></defs><path d="M 0,700 C 0,700 0,560 0,560 C 77.95215311004785,559.5502392344497 155.9043062200957,559.1004784688995 247,564 C 338.0956937799043,568.8995215311005 442.33492822966514,579.1483253588517 546,589 C 649.6650717703349,598.8516746411483 752.7559808612441,608.3062200956938 858,598 C 963.2440191387559,587.6937799043062 1070.641148325359,557.6267942583733 1168,548 C 1265.358851674641,538.3732057416267 1352.6794258373207,549.1866028708134 1440,560 C 1440,560 1440,700 1440,700 Z" stroke="none" stroke-width="0" fill="url(#gradient)" fill-opacity="1" class="transition-all duration-300 ease-in-out delay-150 path-3" transform="rotate(-180 720 350)"></path></svg>